<svg width="109" height="54" viewBox="0 0 109 54" fill="none" xmlns="http://www.w3.org/2000/svg">
<path d="M50.2324 5.45166L60.5 11.5L55.5 14.5L50.2324 5.45166Z" fill="white"/>
<path d="M40 0L48.9844 4.77024L41.2478 19.081L40 0Z" fill="white"/>
<path d="M49.5826 6.76517L59.5 23.5L55 25.6679L49.5826 17.0361L41.4971 22.2606L49.5826 6.76517Z" fill="white"/>
<path d="M8.42 49.2C6.99333 49.2 5.70667 48.8933 4.56 48.28C3.41333 47.6533 2.51333 46.7933 1.86 45.7C1.20667 44.5933 0.88 43.36 0.88 42C0.88 40.64 1.20667 39.4133 1.86 38.32C2.51333 37.2133 3.41333 36.3533 4.56 35.74C5.70667 35.1133 6.99333 34.8 8.42 34.8C9.84667 34.8 11.1333 35.1133 12.28 35.74C13.4267 36.3533 14.3267 37.2067 14.98 38.3C15.6333 39.3933 15.96 40.6267 15.96 42C15.96 43.3733 15.6333 44.6067 14.98 45.7C14.3267 46.7933 13.4267 47.6533 12.28 48.28C11.1333 48.8933 9.84667 49.2 8.42 49.2ZM8.42 46.92C9.35333 46.92 10.1933 46.7133 10.94 46.3C11.6867 45.8733 12.2733 45.2867 12.7 44.54C13.1267 43.78 13.34 42.9333 13.34 42C13.34 41.0667 13.1267 40.2267 12.7 39.48C12.2733 38.72 11.6867 38.1333 10.94 37.72C10.1933 37.2933 9.35333 37.08 8.42 37.08C7.48667 37.08 6.64667 37.2933 5.9 37.72C5.15333 38.1333 4.56667 38.72 4.14 39.48C3.71333 40.2267 3.5 41.0667 3.5 42C3.5 42.9333 3.71333 43.78 4.14 44.54C4.56667 45.2867 5.15333 45.8733 5.9 46.3C6.64667 46.7133 7.48667 46.92 8.42 46.92ZM31.1559 35V49H29.0159L21.2959 39.52V49H18.7159V35H20.8559L28.5759 44.48V35H31.1559ZM45.4073 46.82V49H34.9073V35H45.1273V37.18H37.5073V40.82H44.2673V42.96H37.5073V46.82H45.4073ZM54.7272 49.2C53.3139 49.2 52.0339 48.8933 50.8872 48.28C49.7539 47.6533 48.8605 46.7933 48.2072 45.7C47.5672 44.6067 47.2472 43.3733 47.2472 42C47.2472 40.6267 47.5739 39.3933 48.2272 38.3C48.8805 37.2067 49.7739 36.3533 50.9072 35.74C52.0539 35.1133 53.3339 34.8 54.7472 34.8C55.8939 34.8 56.9405 35 57.8872 35.4C58.8339 35.8 59.6339 36.38 60.2872 37.14L58.6072 38.72C57.5939 37.6267 56.3472 37.08 54.8672 37.08C53.9072 37.08 53.0472 37.2933 52.2872 37.72C51.5272 38.1333 50.9339 38.7133 50.5072 39.46C50.0805 40.2067 49.8672 41.0533 49.8672 42C49.8672 42.9467 50.0805 43.7933 50.5072 44.54C50.9339 45.2867 51.5272 45.8733 52.2872 46.3C53.0472 46.7133 53.9072 46.92 54.8672 46.92C56.3472 46.92 57.5939 46.3667 58.6072 45.26L60.2872 46.86C59.6339 47.62 58.8272 48.2 57.8672 48.6C56.9205 49 55.8739 49.2 54.7272 49.2ZM62.7784 35H65.3784V46.8H72.6984V49H62.7784V35ZM74.7511 35H77.3511V49H74.7511V35ZM87.6178 49.2C86.2045 49.2 84.9245 48.8933 83.7778 48.28C82.6445 47.6533 81.7511 46.7933 81.0978 45.7C80.4578 44.6067 80.1378 43.3733 80.1378 42C80.1378 40.6267 80.4645 39.3933 81.1178 38.3C81.7711 37.2067 82.6645 36.3533 83.7978 35.74C84.9445 35.1133 86.2245 34.8 87.6378 34.8C88.7845 34.8 89.8311 35 90.7778 35.4C91.7245 35.8 92.5245 36.38 93.1778 37.14L91.4978 38.72C90.4845 37.6267 89.2378 37.08 87.7578 37.08C86.7978 37.08 85.9378 37.2933 85.1778 37.72C84.4178 38.1333 83.8245 38.7133 83.3978 39.46C82.9711 40.2067 82.7578 41.0533 82.7578 42C82.7578 42.9467 82.9711 43.7933 83.3978 44.54C83.8245 45.2867 84.4178 45.8733 85.1778 46.3C85.9378 46.7133 86.7978 46.92 87.7578 46.92C89.2378 46.92 90.4845 46.3667 91.4978 45.26L93.1778 46.86C92.5245 47.62 91.7178 48.2 90.7578 48.6C89.8111 49 88.7645 49.2 87.6178 49.2ZM100.489 43.14L98.2691 45.42V49H95.6691V35H98.2691V42.18L105.189 35H108.109L102.229 41.26L108.469 49H105.429L100.489 43.14Z" fill="white"/>
</svg>
